<?xml version="1.0" encoding="iso-8859-1"?>
<!-- Generator: Adobe Illustrator 19.0.0, SVG Export Plug-In . SVG Version: 6.00 Build 0)  -->
<svg xmlns="http://www.w3.org/2000/svg" xmlns:xlink="http://www.w3.org/1999/xlink" version="1.1" id="Layer_1" x="0px" y="0px" viewBox="0 0 416.97 416.97" style="enable-background:new 0 0 416.97 416.97;" xml:space="preserve" width="512px" height="512px">
<g>
	<g>
		<g>
			<path d="M414.774,55.227l-53.03-53.03C360.336,0.79,358.429,0,356.44,0c-1.989,0-3.896,0.79-5.304,2.197l-20.151,20.151     l-3.181-3.181c-2.93-2.929-7.678-2.929-10.607,0L55.203,281.161C25.301,311.063,9.74,352.078,12.191,394.172l-9.994,9.995     c-2.929,2.929-2.929,7.678,0,10.606c1.464,1.465,3.384,2.197,5.303,2.197s3.839-0.732,5.303-2.197l9.992-9.992     c2.884,0.168,5.762,0.255,8.635,0.255c39.027,0,76.527-15.417,104.379-43.27L392.5,105.075l1.515,1.515     c2.145,2.145,3.326,4.997,3.326,8.03c0,3.034-1.182,5.885-3.327,8.03l-91.23,91.23c-9.319,9.32-12.658,22.922-8.714,35.498     c1.005,3.205,3.964,5.257,7.154,5.257c0.743,0,1.5-0.111,2.246-0.346c3.953-1.24,6.151-5.448,4.912-9.401     c-2.267-7.228-0.348-15.046,5.009-20.402l91.229-91.23c4.979-4.978,7.721-11.597,7.721-18.637c0-7.04-2.742-13.658-7.721-18.637     l-9.999-9.999l20.151-20.152C417.702,62.905,417.702,58.156,414.774,55.227z M27.007,389.963     c-1.131-34.148,10.906-67.282,33.653-92.74l59.087,59.087C94.29,379.057,61.163,391.091,27.007,389.963z M130.506,345.857     l-59.394-59.393L196.14,161.436l59.393,59.394L130.506,345.857z M283.435,192.928l-19.863-19.862     c-2.928-2.93-7.677-2.929-10.606,0s-2.929,7.678,0.001,10.606l19.862,19.861l-6.689,6.689l-59.394-59.394l6.689-6.689     l5.448,5.448c1.465,1.464,3.385,2.197,5.304,2.197s3.839-0.732,5.304-2.197c2.929-2.929,2.929-7.678,0-10.606l-5.449-5.449     L322.5,35.076l59.394,59.393L283.435,192.928z M384.016,75.378l-42.424-42.424l14.848-14.848l42.424,42.424L384.016,75.378z" fill="#1886b9"/>
			<path d="M245.678,155.374c-5.751-3.795-13.348,1.8-11.338,8.407c0.915,3.007,3.67,5.147,6.806,5.313     c3.139,0.166,6.087-1.738,7.294-4.621C249.794,161.236,248.613,157.306,245.678,155.374z" fill="#1886b9"/>
			<path d="M245.678,155.374C246.088,155.644,245.269,155.104,245.678,155.374L245.678,155.374z" fill="#1886b9"/>
		</g>
	</g>
</g>

</svg>
