<svg>
<symbol id="svg-icon-expert">
 <g>
      <path d="m401.494,236.593l-27.313-54.627c-2.424-4.848-3.174-10.445-2.11-15.761l5.847-29.234c0.097-0.484 0.146-0.977 0.146-1.471 0-74.715-60.785-135.5-135.5-135.5h-32c-83.538,0-151.5,67.962-151.5,151.5 0,41.804 10.038,76.379 19.746,109.816 9.958,34.297 20.254,69.763 20.254,114.184 0,2.613 1.36,5.037 3.589,6.399l128.458,78.502c2.87,1.754 6.046,2.633 9.229,2.633 2.967,0 5.94-0.765 8.674-2.298 5.667-3.178 9.05-8.954 9.05-15.451v-29.785c0-22.332 18.168-40.5 40.5-40.5h26.556c20.38,0 37.671-15.91 39.364-36.22l5.17-62.038 19.551-7.821c6.084-2.434 10.909-7.342 13.238-13.468 2.327-6.124 1.982-12.999-0.949-18.86zm-13.073,13.53c-0.855,2.248-2.556,3.978-4.789,4.872l-23.855,9.542c-2.637,1.055-4.453,3.51-4.688,6.34l-5.555,66.657c-1.05,12.598-11.774,22.466-24.416,22.466h-26.556c-30.603,0-55.5,24.897-55.5,55.5v29.786c0,1.384-0.869,2.078-1.387,2.368-0.518,0.291-1.563,0.67-2.744-0.051l-124.898-76.327c-0.616-44.551-10.882-79.912-20.819-114.142-9.849-33.922-19.151-65.964-19.151-105.634 0-75.266 61.233-136.5 136.5-136.5h32c66.201,0 120.104,53.659 120.498,119.768l-5.699,28.495c-1.714,8.57-0.505,17.595 3.403,25.411l27.313,54.626c1.076,2.152 1.197,4.575 0.343,6.823z" fill="#1886b9"/>
      <path d="m234.563,143c4.142,0 7.5-3.358 7.5-7.5s-3.358-7.5-7.5-7.5h-9.098c-1.197-7.511-4.164-14.435-8.453-20.343l6.452-6.452c2.929-2.929 2.929-7.678 0-10.606-2.929-2.929-7.678-2.929-10.606,0l-6.452,6.452c-5.907-4.29-12.832-7.257-20.343-8.453v-9.098c0-4.142-3.358-7.5-7.5-7.5s-7.5,3.358-7.5,7.5v9.098c-7.511,1.197-14.435,4.164-20.343,8.453l-6.452-6.452c-2.929-2.929-7.678-2.929-10.606,0-2.929,2.929-2.929,7.678 0,10.606l6.452,6.452c-4.29,5.907-7.257,12.832-8.453,20.343h-9.098c-4.142,0-7.5,3.358-7.5,7.5s3.358,7.5 7.5,7.5h9.098c1.197,7.511 4.164,14.435 8.453,20.343l-6.452,6.452c-2.929,2.929-2.929,7.678 0,10.606 1.464,1.464 3.384,2.197 5.303,2.197s3.839-0.732 5.303-2.197l6.452-6.452c5.907,4.29 12.832,7.257 20.343,8.453v9.098c0,4.142 3.358,7.5 7.5,7.5s7.5-3.358 7.5-7.5v-9.098c7.511-1.197 14.435-4.164 20.343-8.453l6.452,6.452c1.464,1.464 3.384,2.197 5.303,2.197s3.839-0.732 5.303-2.197c2.929-2.929 2.929-7.678 0-10.606l-6.452-6.452c4.29-5.907 7.257-12.832 8.453-20.343h9.098zm-56,25c-17.92,0-32.5-14.58-32.5-32.5s14.58-32.5 32.5-32.5 32.5,14.58 32.5,32.5-14.58,32.5-32.5,32.5z" fill="#1886b9"/>
      <path d="m178.563,121c-7.995,0-14.5,6.505-14.5,14.5s6.505,14.5 14.5,14.5 14.5-6.505 14.5-14.5-6.505-14.5-14.5-14.5zm0,15c-0.276,0-0.5-0.224-0.5-0.5s0.224-0.5 0.5-0.5 0.5,0.224 0.5,0.5-0.224,0.5-0.5,0.5z" fill="#1886b9"/>
      <path d="m306.563,96h-1.409c-0.773-3.152-2.015-6.123-3.659-8.825l1-1c2.929-2.929 2.929-7.678 0-10.606-2.929-2.929-7.678-2.929-10.606,0l-1,1c-2.702-1.644-5.672-2.886-8.825-3.659v-1.41c0-4.142-3.358-7.5-7.5-7.5s-7.5,3.358-7.5,7.5v1.409c-3.152,0.773-6.123,2.015-8.825,3.659l-1-1c-2.929-2.929-7.678-2.929-10.606,0-2.929,2.929-2.929,7.678 0,10.606l1,1c-1.644,2.702-2.886,5.672-3.659,8.825h-1.409c-4.142,0-7.5,3.358-7.5,7.5s3.358,7.5 7.5,7.5h1.409c0.773,3.152 2.015,6.123 3.659,8.825l-1,1c-2.929,2.929-2.929,7.678 0,10.606 1.464,1.464 3.384,2.197 5.303,2.197s3.839-0.732 5.303-2.197l1-1c2.702,1.644 5.672,2.886 8.825,3.659v1.409c0,4.142 3.358,7.5 7.5,7.5s7.5-3.358 7.5-7.5v-1.409c3.152-0.773 6.123-2.015 8.825-3.659l1,1c1.464,1.464 3.384,2.197 5.303,2.197s3.839-0.732 5.303-2.197c2.929-2.929 2.929-7.678 0-10.606l-1-1c1.644-2.702 2.886-5.672 3.659-8.825h1.409c4.142,0 7.5-3.358 7.5-7.5s-3.358-7.499-7.5-7.499zm-32,24c-9.098,0-16.5-7.402-16.5-16.5s7.402-16.5 16.5-16.5 16.5,7.402 16.5,16.5-7.402,16.5-16.5,16.5z" fill="#1886b9"/>
      <path d="m293.843,167.75c-2.071-3.588-6.658-4.817-10.245-2.745l-1.512,.873c-2.316-2.042-5.035-3.635-8.022-4.644v-1.734c0-4.142-3.358-7.5-7.5-7.5s-7.5,3.358-7.5,7.5v1.734c-2.987,1.009-5.707,2.601-8.022,4.644l-1.512-.873c-3.587-2.072-8.174-0.842-10.245,2.745-2.071,3.587-0.842,8.174 2.745,10.245l1.497,.864c-0.302,1.501-0.462,3.052-0.462,4.641s0.16,3.14 0.462,4.641l-1.497,.864c-3.587,2.071-4.816,6.658-2.745,10.245 1.389,2.406 3.91,3.751 6.502,3.751 1.272,0 2.562-0.324 3.743-1.006l1.512-.873c2.316,2.042 5.035,3.635 8.022,4.644v1.734c0,4.142 3.358,7.5 7.5,7.5s7.5-3.358 7.5-7.5v-1.734c2.987-1.009 5.707-2.601 8.022-4.644l1.512,.873c1.181,0.682 2.471,1.006 3.743,1.006 2.592,0 5.113-1.346 6.502-3.751 2.071-3.587 0.842-8.174-2.745-10.245l-1.497-.864c0.302-1.501 0.462-3.052 0.462-4.641s-0.16-3.14-0.462-4.641l1.497-.864c3.587-2.071 4.816-6.658 2.745-10.245zm-35.78,15.75c0-4.687 3.813-8.5 8.5-8.5s8.5,3.813 8.5,8.5-3.813,8.5-8.5,8.5-8.5-3.813-8.5-8.5z" fill="#1886b9"/>
    </g>
</symbol>

<symbol id="svg-icon-story">
<g>
	<path d="M211.206,430.646c-0.049-0.014-0.098-0.027-0.147-0.04l-29.81-7.742c-2.527-0.743-4.523-2.052-4.954-2.735l-0.02-16.215   c0.025-0.03,0.051-0.057,0.076-0.086c10.221-12.216,15.85-28.045,15.85-44.57v-12.076c10.197-33.219,3.011-62.02-0.677-70.402   c-0.012-0.028-0.028-0.054-0.041-0.082c-0.071-0.156-0.149-0.307-0.229-0.457c-0.047-0.088-0.092-0.178-0.141-0.264   c-0.077-0.132-0.161-0.258-0.245-0.385c-0.065-0.098-0.127-0.198-0.196-0.292c-0.073-0.1-0.152-0.195-0.23-0.292   c-0.089-0.111-0.176-0.224-0.27-0.329c-0.065-0.073-0.136-0.141-0.204-0.212c-0.113-0.117-0.225-0.235-0.344-0.345   c-0.064-0.059-0.132-0.112-0.197-0.168c-0.129-0.111-0.257-0.223-0.392-0.325c-0.074-0.056-0.152-0.106-0.228-0.16   c-0.132-0.092-0.262-0.186-0.399-0.271c-0.096-0.06-0.197-0.111-0.295-0.167c-0.121-0.068-0.241-0.138-0.366-0.2   c-0.123-0.061-0.249-0.112-0.375-0.167c-0.107-0.046-0.213-0.096-0.322-0.137c-0.138-0.053-0.279-0.096-0.42-0.141   c-0.104-0.033-0.206-0.07-0.311-0.099c-0.136-0.038-0.276-0.066-0.415-0.096c-0.116-0.025-0.231-0.054-0.348-0.074   c-0.122-0.021-0.246-0.033-0.369-0.049c-0.14-0.018-0.28-0.036-0.422-0.046c-0.102-0.007-0.206-0.007-0.309-0.011   c-0.166-0.005-0.331-0.01-0.498-0.005c-0.089,0.003-0.178,0.011-0.268,0.017c-0.179,0.012-0.357,0.025-0.536,0.049   c-0.029,0.003-0.057,0.003-0.085,0.007c-7.709,1.104-17.114-1.149-27.07-3.533c-17.61-4.217-37.474-8.962-54.875,3.584   c-16.826,1.446-28.757,15.586-28.757,34.698c0,13.898,6.449,38.721,7.927,44.229v6.681c0,17.249,5.969,33.193,15.538,45.086   l-0.022,17.321c-0.43,0.684-2.427,1.992-4.954,2.736l-29.809,7.742c-0.049,0.013-0.098,0.026-0.147,0.04   C41.928,435.979,32,454.581,32,470.208v8.64C32,488.306,40.277,496,50.452,496l85.416-0.009c0.062,0.001,0.123,0.009,0.186,0.009   c0.063,0,0.124-0.008,0.187-0.009l85.417-0.01c10.174,0,18.451-7.694,18.451-17.151v-8.64   C240.107,454.563,230.18,435.961,211.206,430.646z M136.087,446.691l-27.743-16.646c2.115-2.676,3.467-5.927,3.467-9.781   l0.004-3.437c7.4,4.362,15.669,6.84,24.326,6.84c8.498,0,16.699-2.2,24.15-6.364l0.004,2.933c0,3.967,1.43,7.293,3.65,10.013   L136.087,446.691z M96.296,355.007c0-7.952,3.365-19.58,5.88-26.936c36.247,0.832,63.597,9.537,74.026,13.397v4.44   c0,0.024,0,0.049,0,0.073v13.275c0,14.104-5.305,27.026-13.579,35.967c-0.019,0.019-0.036,0.038-0.054,0.057   c-7.113,7.66-16.409,12.386-26.427,12.386c-21.227,0-39.846-23.331-39.846-49.928V355.007z M103.992,288   c0.056,0,0.11-0.007,0.166-0.008c0.206-0.004,0.411-0.011,0.616-0.031c0.101-0.01,0.199-0.028,0.299-0.042   c0.159-0.021,0.319-0.042,0.477-0.073c0.117-0.023,0.23-0.055,0.345-0.083c0.138-0.034,0.277-0.065,0.414-0.106   c0.123-0.037,0.241-0.083,0.361-0.125c0.125-0.044,0.251-0.086,0.374-0.137c0.127-0.052,0.25-0.114,0.373-0.172   c0.112-0.053,0.224-0.103,0.334-0.161c0.137-0.073,0.268-0.155,0.399-0.236c0.091-0.056,0.185-0.107,0.274-0.167   c0.161-0.107,0.315-0.226,0.468-0.344c0.053-0.041,0.108-0.076,0.16-0.118c11.771-9.618,27.047-5.961,43.22-2.089   c8.706,2.084,17.645,4.22,26.325,4.252c2.086,7.707,4.137,21.364,1.934,37.631C167.513,321.247,136.961,312,96.607,312   c-0.02,0-0.038,0.003-0.058,0.003c-0.186,0.001-0.37,0.014-0.554,0.028c-0.086,0.007-0.173,0.009-0.258,0.019   c-0.152,0.017-0.302,0.043-0.452,0.069c-0.115,0.02-0.232,0.035-0.346,0.059c-0.104,0.022-0.205,0.053-0.308,0.08   c-0.154,0.039-0.309,0.076-0.459,0.124c-0.058,0.019-0.113,0.042-0.17,0.063c-0.188,0.065-0.375,0.131-0.557,0.209   c-0.038,0.016-0.073,0.037-0.111,0.053c-0.195,0.088-0.388,0.179-0.575,0.282c-0.07,0.038-0.135,0.083-0.204,0.124   c-0.149,0.088-0.299,0.174-0.442,0.271c-0.134,0.091-0.261,0.192-0.39,0.292c-0.071,0.055-0.146,0.105-0.215,0.162   c-0.16,0.132-0.312,0.275-0.462,0.419c-0.033,0.033-0.07,0.062-0.103,0.095c-0.137,0.137-0.266,0.285-0.394,0.433   c-0.042,0.048-0.087,0.093-0.127,0.143c-0.099,0.121-0.19,0.25-0.283,0.378c-0.063,0.086-0.129,0.17-0.188,0.259   c-0.065,0.097-0.122,0.201-0.183,0.301c-0.079,0.13-0.159,0.258-0.23,0.393c-0.041,0.077-0.076,0.159-0.114,0.237   c-0.053,0.108-0.108,0.214-0.156,0.325c-0.553-3.772-0.9-7.24-0.9-9.99C88.369,298.143,92.46,288,103.992,288z M50.451,480   c-1.634,0-2.451-0.931-2.451-1.151v-8.64c0-9.578,5.891-20.925,17.15-24.118l27.105-7.039l35.798,21.479v19.462L50.451,480z    M224.107,478.83c0,0.22-0.817,1.151-2.452,1.151l-77.602,0.009v-19.422l36.279-21.412l26.625,6.915   c11.259,3.193,17.149,14.54,17.149,24.118V478.83z" fill="#1886b9"/>
	<path d="M451.206,430.646c-0.049-0.014-0.098-0.027-0.147-0.04l-29.81-7.742c-2.527-0.743-4.523-2.052-4.954-2.735l-0.02-16.215   c0.025-0.03,0.051-0.057,0.076-0.086c10.221-12.216,15.85-28.045,15.85-44.57v-12.076c10.197-33.219,3.011-62.02-0.677-70.402   c-0.012-0.028-0.028-0.053-0.04-0.08c-0.072-0.158-0.151-0.312-0.233-0.464c-0.046-0.085-0.089-0.172-0.137-0.255   c-0.079-0.135-0.164-0.265-0.25-0.395c-0.063-0.095-0.124-0.191-0.19-0.283c-0.075-0.103-0.156-0.201-0.236-0.3   c-0.087-0.108-0.172-0.218-0.264-0.321c-0.068-0.076-0.14-0.146-0.21-0.219c-0.111-0.115-0.221-0.231-0.338-0.339   c-0.065-0.061-0.135-0.115-0.202-0.173c-0.127-0.109-0.254-0.219-0.388-0.32c-0.075-0.057-0.154-0.107-0.231-0.162   c-0.131-0.092-0.261-0.185-0.397-0.269c-0.096-0.06-0.197-0.111-0.296-0.167c-0.121-0.068-0.241-0.138-0.366-0.2   c-0.122-0.061-0.247-0.112-0.372-0.166c-0.108-0.047-0.215-0.097-0.325-0.139c-0.136-0.052-0.277-0.095-0.416-0.139   c-0.105-0.034-0.208-0.071-0.315-0.1c-0.135-0.037-0.274-0.065-0.412-0.095c-0.117-0.026-0.233-0.054-0.352-0.075   c-0.121-0.021-0.244-0.033-0.367-0.048c-0.141-0.018-0.281-0.037-0.424-0.047c-0.102-0.007-0.205-0.007-0.308-0.011   c-0.166-0.005-0.331-0.01-0.498-0.005c-0.089,0.003-0.179,0.011-0.268,0.017c-0.178,0.012-0.357,0.025-0.535,0.049   c-0.029,0.004-0.057,0.004-0.085,0.008c-7.708,1.104-17.114-1.149-27.07-3.533c-17.61-4.217-37.474-8.962-54.875,3.584   c-16.826,1.446-28.757,15.586-28.757,34.698c0,13.898,6.449,38.721,7.927,44.229v6.681c0,17.249,5.969,33.193,15.538,45.086   l-0.022,17.321c-0.43,0.684-2.427,1.992-4.954,2.736l-29.809,7.742c-0.049,0.013-0.098,0.026-0.147,0.04   C281.928,435.979,272,454.581,272,470.208v8.64c0,9.457,8.277,17.151,18.452,17.151l85.416-0.009   c0.062,0.001,0.123,0.009,0.186,0.009c0.063,0,0.124-0.008,0.187-0.009l85.417-0.01c10.174,0,18.451-7.694,18.451-17.151v-8.64   C480.107,454.563,470.18,435.961,451.206,430.646z M376.087,446.691l-27.743-16.646c2.115-2.676,3.467-5.927,3.467-9.781   l0.004-3.437c7.4,4.362,15.669,6.84,24.326,6.84c8.498,0,16.699-2.2,24.15-6.364l0.004,2.933c0,3.967,1.43,7.293,3.65,10.013   L376.087,446.691z M336.296,355.007c0-7.952,3.365-19.58,5.88-26.936c36.247,0.832,63.597,9.537,74.026,13.397v4.44   c0,0.024,0,0.049,0,0.073v13.275c0,14.104-5.305,27.026-13.579,35.967c-0.019,0.019-0.036,0.038-0.054,0.057   c-7.113,7.66-16.409,12.386-26.427,12.386c-21.227,0-39.846-23.331-39.846-49.928V355.007z M343.992,288   c0.055,0,0.109-0.007,0.164-0.008c0.206-0.004,0.412-0.011,0.617-0.031c0.1-0.01,0.198-0.028,0.297-0.042   c0.16-0.021,0.321-0.042,0.48-0.073c0.116-0.023,0.228-0.054,0.341-0.082c0.14-0.034,0.28-0.066,0.418-0.107   c0.121-0.037,0.239-0.082,0.357-0.124c0.127-0.045,0.254-0.087,0.379-0.139c0.126-0.052,0.246-0.113,0.369-0.171   c0.113-0.054,0.227-0.104,0.339-0.163c0.135-0.072,0.264-0.153,0.394-0.233c0.093-0.057,0.188-0.109,0.279-0.169   c0.161-0.107,0.313-0.225,0.466-0.343c0.053-0.042,0.109-0.077,0.162-0.119c11.771-9.618,27.047-5.961,43.22-2.089   c8.706,2.084,17.645,4.22,26.325,4.252c2.086,7.707,4.137,21.364,1.934,37.631c-13.021-4.743-43.573-13.99-83.926-13.99   c-0.02,0-0.038,0.003-0.058,0.003c-0.186,0.001-0.37,0.014-0.554,0.028c-0.086,0.007-0.173,0.009-0.258,0.019   c-0.152,0.017-0.302,0.043-0.452,0.069c-0.115,0.02-0.232,0.035-0.346,0.059c-0.104,0.022-0.205,0.053-0.308,0.08   c-0.154,0.039-0.309,0.076-0.459,0.124c-0.058,0.019-0.113,0.042-0.17,0.063c-0.188,0.065-0.376,0.131-0.557,0.209   c-0.038,0.016-0.074,0.037-0.111,0.053c-0.195,0.088-0.388,0.179-0.575,0.282c-0.07,0.038-0.135,0.083-0.204,0.124   c-0.149,0.088-0.299,0.174-0.442,0.271c-0.134,0.091-0.261,0.192-0.39,0.292c-0.071,0.055-0.146,0.105-0.215,0.162   c-0.16,0.132-0.312,0.275-0.462,0.419c-0.033,0.033-0.07,0.062-0.103,0.095c-0.137,0.137-0.266,0.285-0.393,0.433   c-0.042,0.048-0.087,0.093-0.127,0.143c-0.099,0.121-0.19,0.25-0.283,0.378c-0.063,0.086-0.129,0.17-0.188,0.259   c-0.065,0.097-0.122,0.201-0.183,0.301c-0.079,0.13-0.159,0.258-0.23,0.393c-0.041,0.077-0.076,0.159-0.114,0.237   c-0.053,0.108-0.108,0.214-0.156,0.325c-0.553-3.772-0.9-7.24-0.9-9.99C328.369,298.143,332.46,288,343.992,288z M290.451,480   c-1.634,0-2.451-0.931-2.451-1.151v-8.64c0-9.578,5.891-20.925,17.15-24.118l27.105-7.039l35.798,21.479v19.462L290.451,480z    M464.107,478.83c0,0.22-0.817,1.151-2.452,1.151l-77.602,0.009v-19.422l36.279-21.412l26.626,6.915   c11.259,3.193,17.149,14.54,17.149,24.118V478.83z" fill="#1886b9"/>
	<path d="M472,48H312c-4.418,0-8,3.582-8,8s3.582,8,8,8h160c13.234,0,24,10.767,24,24v112c0,13.233-10.766,24-24,24H304   c-4.418,0-8,3.582-8,8v20.687l-26.343-26.343c-3.124-3.125-8.189-3.125-11.313,0c-3.125,3.124-3.125,8.189,0,11.313l40,40   c1.53,1.531,3.576,2.343,5.659,2.343c1.03,0,2.07-0.199,3.06-0.609c2.989-1.238,4.938-4.156,4.938-7.391v-32h160   c22.056,0,40-17.944,40-40V88C512,65.944,494.056,48,472,48z" fill="#1886b9"/>
	<path d="M288,168V56c0-22.056-17.944-40-40-40H40C17.944,16,0,33.944,0,56v112c0,22.056,17.944,40,40,40h112v32   c0,3.235,1.949,6.153,4.938,7.391c0.99,0.41,2.029,0.609,3.06,0.609c2.082,0,4.128-0.813,5.659-2.343L203.313,208H248   C270.056,208,288,190.056,288,168z M272,168c0,13.233-10.767,24-24,24h-48c-2.122,0-4.157,0.843-5.657,2.343L168,220.687V200   c0-4.418-3.582-8-8-8H40c-13.233,0-24-10.767-24-24V56c0-13.233,10.767-24,24-24h208c13.233,0,24,10.767,24,24V168z" fill="#1886b9"/>
	<path d="M48,72h24c4.418,0,8-3.582,8-8s-3.582-8-8-8H48c-4.418,0-8,3.582-8,8S43.582,72,48,72z" fill="#1886b9"/>
	<path d="M240,56H104c-4.418,0-8,3.582-8,8s3.582,8,8,8h136c4.418,0,8-3.582,8-8S244.418,56,240,56z" fill="#1886b9"/>
	<path d="M240,88H48c-4.418,0-8,3.582-8,8s3.582,8,8,8h192c4.418,0,8-3.582,8-8S244.418,88,240,88z" fill="#1886b9"/>
	<path d="M240,120h-24c-4.418,0-8,3.582-8,8s3.582,8,8,8h24c4.418,0,8-3.582,8-8S244.418,120,240,120z" fill="#1886b9"/>
	<path d="M48,136h136c4.418,0,8-3.582,8-8s-3.582-8-8-8H48c-4.418,0-8,3.582-8,8S43.582,136,48,136z" fill="#1886b9"/>
	<path d="M240,152H48c-4.418,0-8,3.582-8,8s3.582,8,8,8h192c4.418,0,8-3.582,8-8S244.418,152,240,152z" fill="#1886b9"/>
	<path d="M312,104h24c4.418,0,8-3.582,8-8s-3.582-8-8-8h-24c-4.418,0-8,3.582-8,8S307.582,104,312,104z" fill="#1886b9"/>
	<path d="M464,104c4.418,0,8-3.582,8-8s-3.582-8-8-8h-96c-4.418,0-8,3.582-8,8s3.582,8,8,8H464z" fill="#1886b9"/>
	<path d="M312,136h152c4.418,0,8-3.582,8-8s-3.582-8-8-8H312c-4.418,0-8,3.582-8,8S307.582,136,312,136z" fill="#1886b9"/>
	<path d="M464,152h-24c-4.418,0-8,3.582-8,8s3.582,8,8,8h24c4.418,0,8-3.582,8-8S468.418,152,464,152z" fill="#1886b9"/>
	<path d="M312,168h96c4.418,0,8-3.582,8-8s-3.582-8-8-8h-96c-4.418,0-8,3.582-8,8S307.582,168,312,168z" fill="#1886b9"/>
	<path d="M312,200h152c4.418,0,8-3.582,8-8s-3.582-8-8-8H312c-4.418,0-8,3.582-8,8S307.582,200,312,200z" fill="#1886b9"/>
</g>
</symbol>

<symbol id="svg-icon-vis">
		<g>
			<path d="M414.774,55.227l-53.03-53.03C360.336,0.79,358.429,0,356.44,0c-1.989,0-3.896,0.79-5.304,2.197l-20.151,20.151     l-3.181-3.181c-2.93-2.929-7.678-2.929-10.607,0L55.203,281.161C25.301,311.063,9.74,352.078,12.191,394.172l-9.994,9.995     c-2.929,2.929-2.929,7.678,0,10.606c1.464,1.465,3.384,2.197,5.303,2.197s3.839-0.732,5.303-2.197l9.992-9.992     c2.884,0.168,5.762,0.255,8.635,0.255c39.027,0,76.527-15.417,104.379-43.27L392.5,105.075l1.515,1.515     c2.145,2.145,3.326,4.997,3.326,8.03c0,3.034-1.182,5.885-3.327,8.03l-91.23,91.23c-9.319,9.32-12.658,22.922-8.714,35.498     c1.005,3.205,3.964,5.257,7.154,5.257c0.743,0,1.5-0.111,2.246-0.346c3.953-1.24,6.151-5.448,4.912-9.401     c-2.267-7.228-0.348-15.046,5.009-20.402l91.229-91.23c4.979-4.978,7.721-11.597,7.721-18.637c0-7.04-2.742-13.658-7.721-18.637     l-9.999-9.999l20.151-20.152C417.702,62.905,417.702,58.156,414.774,55.227z M27.007,389.963     c-1.131-34.148,10.906-67.282,33.653-92.74l59.087,59.087C94.29,379.057,61.163,391.091,27.007,389.963z M130.506,345.857     l-59.394-59.393L196.14,161.436l59.393,59.394L130.506,345.857z M283.435,192.928l-19.863-19.862     c-2.928-2.93-7.677-2.929-10.606,0s-2.929,7.678,0.001,10.606l19.862,19.861l-6.689,6.689l-59.394-59.394l6.689-6.689     l5.448,5.448c1.465,1.464,3.385,2.197,5.304,2.197s3.839-0.732,5.304-2.197c2.929-2.929,2.929-7.678,0-10.606l-5.449-5.449     L322.5,35.076l59.394,59.393L283.435,192.928z M384.016,75.378l-42.424-42.424l14.848-14.848l42.424,42.424L384.016,75.378z" fill="#1886b9"/>
			<path d="M245.678,155.374c-5.751-3.795-13.348,1.8-11.338,8.407c0.915,3.007,3.67,5.147,6.806,5.313     c3.139,0.166,6.087-1.738,7.294-4.621C249.794,161.236,248.613,157.306,245.678,155.374z" fill="#1886b9"/>
			<path d="M245.678,155.374C246.088,155.644,245.269,155.104,245.678,155.374L245.678,155.374z" fill="#1886b9"/>
		</g>
</symbol>

</svg>